<?xml version="1.0" encoding="utf-8"?>
<!-- Generator: Adobe Illustrator 16.0.4, SVG Export Plug-In . SVG Version: 6.00 Build 0)  -->
<!DOCTYPE svg PUBLIC "-//W3C//DTD SVG 1.1//EN" "http://www.w3.org/Graphics/SVG/1.1/DTD/svg11.dtd">
<svg version="1.1" id="Layer_1" xmlns="http://www.w3.org/2000/svg" xmlns:xlink="http://www.w3.org/1999/xlink" x="0px" y="0px"
	 width="72px" height="72px" viewBox="0 0 72 72" enable-background="new 0 0 72 72" xml:space="preserve">
<g>
	<g>
		<path fill="#DCDDDE" d="M31.691,68.436c0,0,0.583-1.417,0.583-4.75s-3.667-7.666-3.5-10.666s4.417-1.668,5.334,1.166
			c0.916,2.834,2.166,8.251,1.916,10.334S33.441,68.186,31.691,68.436z"/>
	</g>
	<g>
		<path fill="#DCDDDE" d="M40.023,68.353c0,0,1.584-0.166,3.417-5.833s2.583-6,2-8.167s-1.167-3.083-1-5.5s3.833-4.667,3.833-3.75
			s0.75,5.833,4.083,6.5c3.334,0.667,7.334-1,8.417-2.5s2.917,4.666,2.333,6.583c-0.583,1.917-3.416-0.999-6.083,0.834
			s-3.75,5.084-5,4.5s-3.167-1-3.25,1.083S45.689,69.603,40.023,68.353z"/>
	</g>
	<g>
		<g>
			<path d="M18.848,42.812c1.578,0,2.79,0.307,2.939,1.035c0,0,1.987,8.631-1.831,9.521c-0.906,0.211-1.742,0.321-2.517,0.321
				c-2.481,0-4.312-1.144-5.749-3.774c-1.883-3.453-1.621-5.074,1.622-6.172C15,43.172,17.139,42.812,18.848,42.812 M18.848,40.812
				L18.848,40.812c-1.923,0-4.289,0.396-6.176,1.036c-1.315,0.444-3.147,1.251-3.869,3.099c-0.772,1.975,0.14,4.104,1.133,5.926
				c1.769,3.242,4.224,4.817,7.505,4.817c0.917,0,1.889-0.122,2.971-0.374c5.483-1.277,3.732-10.15,3.326-11.918
				C23.5,42.244,22.448,40.812,18.848,40.812L18.848,40.812z"/>
		</g>
		<g>
			<path d="M14.727,54.572c0,0-5.912,1.516-8.213,0.418c-2.304-1.099-3.453,6.016,6.538,2.772c0,0,0,3.976,3.243,5.597
				c3.243,1.622,4.709-0.732,4.709-0.732s1.726,2.74,2.877,4.52c1.149,1.779,3.189,1.779,5.545,1.622
				c2.354-0.157-3.349,0.263-3.978-3.349c-0.627-3.609-2.51-10.272-3.608-11.477C20.743,52.74,17.969,55.199,14.727,54.572z"/>
		</g>
		<g>
			<path d="M34.5,47.388c0,0-5.092-3.94-6.695-4.187c-1.604-0.242-2.022,0.314-2.022,0.314h-3.104v2.72h2.476
				c0,0,0.872,4.065,4.011,7.937h1.64c0,0,1.082,4.271,2.756,5.525c1.674,1.256,2.649,0.838,2.649,0.838V48.781L34.5,47.388z"/>
		</g>
		<g>
			<circle cx="17.988" cy="52.323" r="0.575"/>
		</g>
		<g>
			<circle cx="25.52" cy="55.357" r="0.436"/>
		</g>
		<g>
			<g>
				<path d="M5.581,56.485c-0.016-0.061-1.479-6.108,3.608-9.678l0.961,1.369c-4.128,2.896-2.997,7.696-2.946,7.899L5.581,56.485z"
					/>
			</g>
		</g>
		<g>
			<g>
				<path d="M11.53,50.473l-0.514-0.661c0.159-0.123,3.954-3.011,11.561-2.946l-0.008,0.836
					C15.288,47.635,11.567,50.443,11.53,50.473z"/>
			</g>
		</g>
		<g>
			<path d="M30.458,69.775c-0.175,0-0.354-0.003-0.536-0.008c-4.104-0.117-5.751-2.293-5.819-2.387l1.603-1.196
				c0.049,0.062,1.207,1.496,4.273,1.583c2.043,0.061,3.31-0.239,4.027-0.938c0.609-0.594,0.906-1.567,0.906-2.979V48.817h2v15.033
				c0,1.979-0.494,3.425-1.514,4.414C34.332,69.302,32.795,69.775,30.458,69.775z"/>
		</g>
		<g>
			<path d="M53.152,42.812c1.709,0,3.848,0.359,5.534,0.932c3.243,1.098,3.505,2.719,1.622,6.172
				c-1.438,2.633-3.269,3.774-5.749,3.774c-0.773,0-1.609-0.11-2.518-0.321c-3.817-0.891-1.83-9.521-1.83-9.521
				C50.362,43.119,51.574,42.812,53.152,42.812 M53.152,40.812c-3.6,0-4.651,1.432-4.898,2.631
				c-0.396,1.723-2.147,10.596,3.336,11.873c1.082,0.252,2.054,0.374,2.971,0.374c3.281,0,5.736-1.575,7.505-4.817
				c0.993-1.821,1.905-3.951,1.133-5.926c-0.722-1.848-2.554-2.652-3.869-3.099C57.441,41.209,55.075,40.812,53.152,40.812
				L53.152,40.812z"/>
		</g>
		<g>
			<path d="M57.273,54.572c0,0,5.912,1.516,8.214,0.418c2.301-1.099,3.452,6.016-6.539,2.772c0,0,0,3.976-3.243,5.597
				c-3.244,1.622-4.709-0.732-4.709-0.732s-1.726,2.74-2.877,4.52c-1.149,1.779-3.189,1.779-5.545,1.622
				c-2.354-0.157,3.348,0.263,3.978-3.349c0.627-3.609,2.51-10.272,3.608-11.477C51.258,52.74,54.031,55.199,57.273,54.572z"/>
		</g>
		<g>
			<path d="M37.5,47.388c0,0,5.093-3.94,6.696-4.187c1.604-0.242,2.022,0.314,2.022,0.314h3.104v2.72h-2.476
				c0,0-0.872,4.065-4.011,7.937h-1.64c0,0-1.082,4.271-2.756,5.525c-1.673,1.256-2.65,0.838-2.65,0.838V48.781L37.5,47.388z"/>
		</g>
		<g>
			<circle cx="54.014" cy="52.322" r="0.576"/>
		</g>
		<g>
			<circle cx="46.481" cy="55.357" r="0.436"/>
		</g>
		<g>
			<g>
				<path d="M66.421,56.485c0.016-0.061,1.478-6.108-3.609-9.678l-0.961,1.369c4.128,2.896,2.997,7.696,2.946,7.899L66.421,56.485z"
					/>
			</g>
		</g>
		<g>
			<g>
				<path d="M60.471,50.473l0.514-0.661c-0.159-0.123-3.954-3.011-11.561-2.946l0.008,0.836
					C56.713,47.635,60.434,50.443,60.471,50.473z"/>
			</g>
		</g>
		<g>
			<path d="M41.542,69.775c-2.337,0-3.872-0.474-4.939-1.511c-1.02-0.989-1.514-2.435-1.514-4.414V48.817h2v15.033
				c0,1.412,0.297,2.387,0.906,2.979c0.719,0.697,1.987,0.998,4.027,0.938c3.104-0.088,4.396-1.641,4.408-1.655l1.578,1.229
				c-0.073,0.094-1.844,2.31-5.931,2.427C41.896,69.772,41.717,69.775,41.542,69.775z"/>
		</g>
	</g>
	<g>
		<path fill="#FFFFFF" d="M33.426,49.977c-5.95,0-10.791-4.841-10.791-10.791v-1.973c-4.271-3.81-6.71-9.23-6.71-14.948
			c0-5.237,2.007-10.191,5.651-13.951c3.811-3.927,8.919-6.089,14.389-6.089c5.603,0,10.989,2.371,14.777,6.504
			c3.395,3.703,5.264,8.511,5.264,13.536c0,5.668-2.407,11.059-6.619,14.864v2.057c0,5.95-4.841,10.791-10.791,10.791H33.426z"/>
	</g>
	<path fill="#DCDDDE" d="M23.641,32.372c0,0-6.312-4.372-5.938-11.997c0,0-1.918,2.749-0.418,8.708s4.583,7.125,4.751,7.25
		C22.204,36.457,23.641,32.372,23.641,32.372z"/>
	<path fill="#DCDDDE" d="M55.436,17.653c0.002-0.163-0.006-0.34-0.023-0.528c-0.022-0.252-0.186-0.616-0.463-1.049
		c-0.389-1.053-1.02-2.511-2.039-4.535c-3.209-6.375-10.125-7.834-10.125-7.834c3.008,2.135,3.176,4.416,2.597,5.878
		c-0.154,0.22-1.373,1.917-3.554,3.706c-2.334,1.916-5.667,5.834-4.958,11.292c0.708,5.458,0.542,7.999-0.207,9.041
		c-0.268,0.371-0.547,0.957-0.744,1.583h2.244v14.528c3.121,0.429,8.646-1.28,10.084-6.235c1.875-6.459-0.043-10.333,0.082-11.833
		s3.457-2.083,3.916-7.375c0.459-5.291-0.875-8.459-4.832-9.666c0,0,1.879-0.188,3.787,0.815c0.842,0.54,1.527,1.134,2.078,1.696
		c0.074,0.078,0.145,0.154,0.215,0.225c1.062,1.141,1.543,2.096,1.543,2.096l0.459-0.75C55.494,18.707,55.631,18.521,55.436,17.653z
		"/>
	<g>
		<path d="M23.641,39.201v-6.83c0,0-1.894,1.951-2.021,5.055C21.489,40.531,22.86,40.442,23.641,39.201"/>
	</g>
	<g>
		<path d="M48.381,39.201v-6.83c0,0,1.854,1.951,1.981,5.055C50.49,40.531,49.146,40.442,48.381,39.201"/>
	</g>
	<g>
		<rect x="28.18" y="40.92" width="15.276" height="0.6"/>
	</g>
	<g>
		<rect x="35.394" y="37.937" width="0.6" height="6.396"/>
	</g>
	<g>
		<rect x="32.632" y="37.937" width="0.6" height="6.396"/>
	</g>
	<g>
		<rect x="29.871" y="37.937" width="0.601" height="6.396"/>
	</g>
	<g>
		<rect x="38.155" y="37.937" width="0.601" height="6.396"/>
	</g>
	<g>
		<rect x="40.917" y="37.937" width="0.601" height="6.396"/>
	</g>
	<g>
		<path d="M32.633,25.188c0,2.905-2.355,5.262-5.263,5.262c-2.906,0-5.262-2.356-5.262-5.262c0-2.906,2.355-5.263,5.262-5.263
			C30.278,19.926,32.633,22.283,32.633,25.188"/>
	</g>
	<g>
		<path d="M49.633,25.188c0,2.905-2.355,5.262-5.263,5.262c-2.906,0-5.262-2.356-5.262-5.262c0-2.906,2.355-5.263,5.262-5.263
			C47.277,19.926,49.633,22.283,49.633,25.188"/>
	</g>
	<g>
		<path d="M37.34,29.222c-0.777-1.667-2.078-1.684-2.889-0.038l-1.801,3.656c-0.811,1.646-0.123,2.993,1.525,2.993h3.25
			c1.649,0,2.362-1.364,1.586-3.031L37.34,29.222z"/>
	</g>
	<g>
		<path d="M52.053,16.041c0,0,4.401,4.402,1.713,13.086c-2.689,8.684,1.625,0.497,1.625,0.497S59.146,19.708,52.053,16.041"/>
	</g>
	<g>
		<path d="M19.949,16.041c0,0-4.401,4.402-1.713,13.086c2.689,8.684-1.625,0.497-1.625,0.497S12.855,19.708,19.949,16.041"/>
	</g>
	<g>
		<path d="M45.965,15.378c1.639,0,3.182,0.396,4.555,1.082c-1.449-1.377-3.402-2.226-5.557-2.226c-3.865,0-7.091,2.715-7.884,6.34
			C38.83,17.475,42.15,15.378,45.965,15.378"/>
	</g>
	<g>
		<path d="M26.069,15.378c-1.639,0-3.182,0.396-4.555,1.082c1.449-1.377,3.401-2.226,5.557-2.226c3.863,0,7.09,2.715,7.883,6.34
			C33.204,17.475,29.883,15.378,26.069,15.378"/>
	</g>
	<g>
		<path d="M40.808,44.851H30.552c-1.72,0-3.116-1.593-3.116-3.55s1.396-3.551,3.116-3.551h10.255c1.719,0,3.116,1.594,3.116,3.551
			S42.526,44.851,40.808,44.851z M30.552,38.351c-1.389,0-2.518,1.323-2.518,2.95s1.129,2.949,2.518,2.949h10.255
			c1.388,0,2.517-1.322,2.517-2.949s-1.129-2.95-2.517-2.95H30.552z"/>
	</g>
	<g>
		<path fill="#FFFFFF" d="M48.416,25.188c0,1.361-1.104,2.466-2.466,2.466c-1.361,0-2.466-1.104-2.466-2.466
			c0-1.362,1.104-2.466,2.466-2.466C47.312,22.722,48.416,23.827,48.416,25.188"/>
	</g>
	<g>
		<path fill="#FFFFFF" d="M31.417,25.188c0,1.361-1.104,2.466-2.466,2.466c-1.361,0-2.466-1.104-2.466-2.466
			c0-1.362,1.104-2.466,2.466-2.466C30.313,22.722,31.417,23.827,31.417,25.188"/>
	</g>
	<g>
		<path d="M29.692,31.792c0,0-2.252,0.309-4.326-0.274c-2.073-0.582-2.858,0.241-2.967,0.892s0.393,1.507,2.717,1.68
			c2.324,0.171,4.754,0.342,5.255-0.721C30.872,32.307,30.408,31.724,29.692,31.792z"/>
	</g>
	<g>
		<path d="M42.822,31.792c0,0,2.252,0.309,4.326-0.274c2.073-0.582,2.859,0.241,2.967,0.892c0.108,0.651-0.393,1.507-2.717,1.68
			c-2.324,0.171-4.754,0.342-5.255-0.721C41.643,32.307,42.106,31.724,42.822,31.792z"/>
	</g>
</g>
</svg>
