<?xml version="1.0" encoding="utf-8"?>
<!-- Generator: Adobe Illustrator 16.0.4, SVG Export Plug-In . SVG Version: 6.00 Build 0)  -->
<!DOCTYPE svg PUBLIC "-//W3C//DTD SVG 1.1//EN" "http://www.w3.org/Graphics/SVG/1.1/DTD/svg11.dtd">
<svg version="1.1" id="Layer_1" xmlns="http://www.w3.org/2000/svg" xmlns:xlink="http://www.w3.org/1999/xlink" x="0px" y="0px"
	 width="72px" height="72px" viewBox="0 0 72 72" enable-background="new 0 0 72 72" xml:space="preserve">
<g>
	<path stroke="#000000" stroke-width="3" d="M58.104,25.171c0.018-1.114-0.438-1.806-1.279-2.372
		C53.562,20.604,45.189,15.657,36,15.657c-9.188,0-17.562,4.948-20.824,7.143c-0.842,0.565-1.297,1.258-1.279,2.372
		c-0.498,6.414-2.898,27.368-2.301,29.669c0.525,2.023,2.59,3.236,4.613,2.711c0.242-0.062,0.471-0.148,0.689-0.252
		c0.33,3.588,0.596,6.473,0.752,8.146c0,0.596,0.482,1.076,1.076,1.076c0,0,6.188,0,7.73,0c2.041,0,2.672-2.156,9.543-2.156
		c6.872,0,7.502,2.156,9.543,2.156c1.545,0,7.73,0,7.73,0c0.594,0,1.021-0.484,1.076-1.076c0.158-1.674,0.424-4.559,0.754-8.146
		c0.217,0.104,0.445,0.189,0.688,0.252c2.023,0.525,4.09-0.688,4.613-2.711C61.002,52.539,58.604,31.584,58.104,25.171z"/>
	<g>
		<path fill="#004784" d="M53.08,52.938c-0.525,2.023,0.688,4.088,2.711,4.613s4.09-0.688,4.613-2.711
			c0.619-2.377-1.961-24.642-2.344-30.249"/>
	</g>
	<g>
		<polygon fill="#FFFFFF" points="59.062,33.305 45.143,35.385 47.703,37.945 59.543,39.705 		"/>
		<polyline fill="#FFC820" stroke="#007EC6" stroke-width="0.4" stroke-miterlimit="10" points="59.062,34.746 52.822,35.545 
			54.582,36.666 49.943,37.145 58.104,38.105 56.184,36.986 59.223,37.145 		"/>
	</g>
	<g>
		<path fill="none" stroke="#000000" stroke-width="0.9" d="M53.08,52.938c-0.525,2.023,0.688,4.088,2.711,4.613
			s4.09-0.688,4.613-2.711c0.619-2.377-1.961-24.642-2.344-30.249"/>
	</g>
	<path fill="#004784" d="M18.921,52.938c0.525,2.023-0.689,4.088-2.713,4.613s-4.088-0.688-4.613-2.711
		c-0.617-2.377,1.961-24.642,2.344-30.249"/>
	<g>
		<polygon fill="#FFFFFF" points="13.029,33.305 26.949,35.385 24.388,37.945 12.548,39.705 		"/>
		<polyline fill="#FFC820" stroke="#007EC6" stroke-width="0.4" stroke-miterlimit="10" points="13.029,34.746 19.269,35.545 
			17.509,36.666 22.15,37.145 13.99,38.105 15.91,36.986 12.869,37.145 		"/>
	</g>
	<g>
		<path fill="none" stroke="#000000" stroke-width="0.9" d="M18.921,52.938c0.525,2.023-0.689,4.088-2.713,4.613
			s-4.088-0.688-4.613-2.711c-0.617-2.377,1.961-24.642,2.344-30.249"/>
	</g>
	<path fill="#004784" d="M54.35,65.445c0.545-5.789,2.377-26.025,3.738-39.914c0.131-1.333-0.334-2.107-1.264-2.732
		C53.562,20.604,45.189,15.657,36,15.657c-9.188,0-17.562,4.948-20.824,7.143c-0.93,0.625-1.393,1.399-1.262,2.732
		c1.361,13.888,3.193,34.125,3.736,39.914c0,0.596,0.482,1.076,1.076,1.076c0,0,6.188,0,7.73,0c2.041,0,2.672-2.156,9.543-2.156
		c6.872,0,7.502,2.156,9.543,2.156c1.545,0,7.73,0,7.73,0C53.867,66.521,54.295,66.037,54.35,65.445z"/>
	<path fill="#FFFFFF" d="M25.41,25.397v-7.812c0,0,5.906-1.76,9.746-1.76c3.84,0,11.84,2.08,11.84,2.08v7.492"/>
	<g>
		<defs>
			<path id="SVGID_1_" d="M54.35,65.445c0.545-5.789,2.377-26.025,3.738-39.914c0.131-1.333-0.334-2.107-1.264-2.732
				C53.562,20.604,45.189,15.657,36,15.657c-9.188,0-17.562,4.948-20.824,7.143c-0.93,0.625-1.393,1.399-1.262,2.732
				c1.361,13.888,3.193,34.125,3.736,39.914c0,0.596,0.482,1.076,1.076,1.076c0,0,6.188,0,7.73,0c2.041,0,2.672-2.156,9.543-2.156
				c6.872,0,7.502,2.156,9.543,2.156c1.545,0,7.73,0,7.73,0C53.867,66.521,54.295,66.037,54.35,65.445z"/>
		</defs>
		<clipPath id="SVGID_2_">
			<use xlink:href="#SVGID_1_"  overflow="visible"/>
		</clipPath>
		<g clip-path="url(#SVGID_2_)">
			<polygon fill="#FFFFFF" points="12.916,32.625 26.835,34.706 24.275,37.266 12.435,39.025 			"/>
			<polyline fill="#FFC820" stroke="#007EC6" stroke-width="0.4" stroke-miterlimit="10" points="12.916,34.065 19.156,34.866 
				17.396,35.985 22.037,36.465 13.876,37.426 15.796,36.305 12.755,36.465 			"/>
			<polygon fill="#FFFFFF" points="58.836,32.625 44.916,34.706 47.477,37.266 59.316,39.025 			"/>
			<polyline fill="#FFC820" stroke="#007EC6" stroke-width="0.4" stroke-miterlimit="10" points="58.836,34.065 52.596,34.866 
				54.355,35.985 49.717,36.465 57.877,37.426 55.957,36.305 58.996,36.465 			"/>
		</g>
	</g>
	<g>
		<path fill="#FFFFFF" d="M17.503,65.445l9.826,0.811l-8.75,0.266C18.58,66.521,18.185,66.127,17.503,65.445z"/>
		<path fill="#FFFFFF" d="M54.496,65.445l-9.824,0.811l8.748,0.266C53.42,66.521,53.814,66.127,54.496,65.445z"/>
	</g>
	<g>
		<g>
			<line fill="none" stroke="#002C61" stroke-width="0.2" stroke-miterlimit="10" x1="14.32" y1="28.328" x2="19.599" y2="66.193"/>
			<line fill="none" stroke="#002C61" stroke-width="0.2" stroke-miterlimit="10" x1="57.68" y1="28.328" x2="52.4" y2="66.193"/>
		</g>
		<path fill="none" stroke="#002C61" stroke-width="0.2" stroke-miterlimit="10" d="M57.734,28.651
			C49.855,20.772,48.029,17.608,36,17.608c-12.027,0-13.854,3.164-21.732,11.043"/>
		<path fill="none" stroke="#002C61" stroke-width="0.4" stroke-miterlimit="10" d="M35.972,17.128
			c7.284,0,10.559,3.484,10.559,7.629c0,4.145-10.559,11.571-10.559,11.571S25.41,28.902,25.41,24.757
			C25.41,20.612,28.687,17.128,35.972,17.128z"/>
	</g>
	<g>
		<ellipse cx="36" cy="68.129" rx="20.908" ry="0.738"/>
	</g>
	<path fill="none" stroke="#000000" stroke-width="0.9" d="M54.35,65.445c0.545-5.789,2.377-26.025,3.738-39.914
		c0.131-1.333-0.334-2.107-1.264-2.732C53.562,20.604,45.189,15.657,36,15.657c-9.188,0-17.562,4.948-20.824,7.143
		c-0.93,0.625-1.393,1.399-1.262,2.732c1.361,13.888,3.193,34.125,3.736,39.914c0,0.596,0.482,1.076,1.076,1.076c0,0,6.188,0,7.73,0
		c2.041,0,2.672-2.156,9.543-2.156c6.872,0,7.502,2.156,9.543,2.156c1.545,0,7.73,0,7.73,0
		C53.867,66.521,54.295,66.037,54.35,65.445z"/>
	<path fill="none" stroke="#000000" stroke-width="0.9" stroke-linecap="round" stroke-linejoin="round" d="M47.924,63.555
		c0,0-4.311,0.555-11.924,0.555c-7.611,0-11.924-0.555-11.924-0.555"/>
	<g>
		<path fill="none" stroke="#FFD700" stroke-width="1.2" d="M28.058,54.262h2.178V42.529h-2.178v-2.672h5.371v14.404h2.129v2.672
			h-7.5V54.262z"/>
		<path fill="none" stroke="#FFD700" stroke-width="1.2" d="M38.18,50.623l2.771-7.871h-5.124v-2.895h8.514v2.203l-2.994,8.588
			v6.285H38.18V50.623z"/>
	</g>
	<g>
		<path fill="#FFFFFF" stroke="#007EC6" stroke-width="0.4" d="M28.058,54.262h2.178V42.529h-2.178v-2.672h5.371v14.404h2.129v2.672
			h-7.5V54.262z"/>
		<path fill="#FFFFFF" stroke="#007EC6" stroke-width="0.4" d="M38.18,50.623l2.771-7.871h-5.124v-2.895h8.514v2.203l-2.994,8.588
			v6.285H38.18V50.623z"/>
	</g>
	<g>
		<line fill="none" stroke="#002C61" stroke-width="0.2" stroke-miterlimit="10" x1="41.795" y1="31.485" x2="55.395" y2="45.404"/>
		<line fill="none" stroke="#002C61" stroke-width="0.2" stroke-miterlimit="10" x1="30.148" y1="31.485" x2="16.548" y2="45.404"/>
	</g>
	<g>
		<g>
			<path fill="#E8E8E8" d="M36,15.124c8.377,0,12.145,4.007,12.145,8.774c0,4.766-12.145,10.21-12.145,10.21
				s-12.145-5.444-12.145-10.21C23.855,19.13,27.623,15.124,36,15.124z"/>
			<g>
				<g>
					<g>
						<g>
							<path d="M31.308,22.036c-0.289,1.575-1.098,2.847-1.805,2.843c-0.707-0.006-1.043-1.286-0.754-2.861
								c0.291-1.575,1.098-2.848,1.805-2.842C31.261,19.18,31.597,20.461,31.308,22.036z"/>
						</g>
						<path fill="#989A9C" d="M30.519,23.201c-0.104,0.389-0.273,0.704-0.377,0.704c-0.105,0-0.105-0.314-0.002-0.704
							s0.271-0.704,0.377-0.704C30.621,22.497,30.621,22.812,30.519,23.201z"/>
					</g>
					<g>
						<g>
							<path d="M40.691,22.036c0.291,1.575,1.098,2.847,1.805,2.843c0.707-0.006,1.045-1.286,0.754-2.861
								c-0.289-1.575-1.098-2.848-1.803-2.842C40.74,19.18,40.402,20.461,40.691,22.036z"/>
						</g>
						<path fill="#989A9C" d="M42.66,23.109c0.014,0.389,0.109,0.703,0.213,0.703c0.105,0,0.18-0.314,0.166-0.703
							c-0.014-0.389-0.107-0.705-0.211-0.705C42.723,22.405,42.65,22.72,42.66,23.109z"/>
					</g>
				</g>
			</g>
			<g>
				<path fill="#FFFFFF" d="M42.115,25.303H29.886c-1.086,0-1.412,1.194-1.412,1.736c0,0.288,0,1.613,0,2.796
					c3.424,2.454,7.48,4.272,7.48,4.272s4.129-1.852,7.571-4.339c0-1.166,0-2.447,0-2.729
					C43.525,26.497,43.201,25.303,42.115,25.303z"/>
			</g>
			<g>
				<path fill="#FFFFFF" stroke="#000000" stroke-width="0.4" stroke-linecap="round" stroke-linejoin="round" d="M44.062,27.351
					c-4.455,2.802-11.67,2.802-16.124,0"/>
			</g>
			<g>
				<g>
					<path d="M29.185,26.281c-0.006,0-0.01,0-0.018-0.042c-0.062-0.243-0.152-0.867-0.004-1.606
						c0.002-0.014,0.016-0.062,0.021-0.069c0.037,0,2.676,0.007,2.676,0.007s0.432,0.176,0.732,0.438
						c0.512,0.366,0.307,0.745-0.01,0.949c0.033,0.038-0.76,0.324-0.76,0.324S29.222,26.281,29.185,26.281z"/>
				</g>
				<g>
					<path d="M42.816,26.281c0.006,0,0.008,0,0.018-0.042c0.062-0.243,0.152-0.867,0.004-1.606
						c-0.002-0.014-0.016-0.062-0.021-0.069c-0.037,0-2.678,0.007-2.678,0.007s-0.43,0.176-0.732,0.438
						c-0.512,0.366-0.307,0.745,0.012,0.949c-0.033,0.038,0.758,0.324,0.758,0.324S42.779,26.281,42.816,26.281z"/>
				</g>
			</g>
			<path fill="none" stroke="#000000" stroke-width="0.8" d="M36,15.124c8.377,0,12.145,4.007,12.145,8.774
				c0,4.766-12.145,10.21-12.145,10.21s-12.145-5.444-12.145-10.21C23.855,19.13,27.623,15.124,36,15.124z"/>
		</g>
	</g>
	<g>
		<g>
			<defs>
				<path id="SVGID_3_" d="M15.175,3.132v19.667c3.262-2.195,11.637-7.143,20.824-7.143c9.19,0,17.563,4.948,20.825,7.143V3.132
					H15.175z"/>
			</defs>
			<clipPath id="SVGID_4_">
				<use xlink:href="#SVGID_3_"  overflow="visible"/>
			</clipPath>
			<path clip-path="url(#SVGID_4_)" stroke="#000000" stroke-width="3" d="M26.63,28.761c0,0,0-7.167,0-7.843
				s0.404-2.162,1.756-2.162h15.229c1.352,0,1.756,1.486,1.756,2.162s0,7.843,0,7.843l0.867,0.541
				c1.148-1.149,2.479-1.794,2.479-3.784c0-0.946,0-2.717,0-4.684c0-3.923-2.506-11.61-12.717-11.61
				c-10.211,0-12.715,7.687-12.715,11.61c0,1.966,0,3.738,0,4.684c0,1.989,1.33,2.635,2.479,3.784L26.63,28.761z"/>
		</g>
		<g>
			<g>
				<g>
					<path stroke="#000000" stroke-width="0.8" d="M38.238,33.182c-1.584,1.582-2.891,1.582-4.475,0c0,0,1.023-0.727,2.375-0.727
						C37.488,32.456,38.238,33.182,38.238,33.182z"/>
					<path fill="#FFFFFF" d="M27.412,28.761c0,0,0-7.167,0-7.843s0.406-2.162,1.758-2.162h13.663c1.352,0,1.756,1.486,1.756,2.162
						s0,7.843,0,7.843l0.098,0.541c1.148-1.149,4.031-2.708,4.031-4.696c0-0.946,0-1.805,0-3.771c0-3.923-2.506-11.61-12.717-11.61
						c-10.211,0-12.715,7.687-12.715,11.61c0,1.966,0,2.825,0,3.771c0,1.989,2.861,3.547,4.012,4.696L27.412,28.761z"/>
					<g>
						<defs>
							<path id="SVGID_5_" d="M27.412,28.761c0,0,0-7.167,0-7.843s0.406-2.162,1.758-2.162h13.663c1.352,0,1.756,1.486,1.756,2.162
								s0,7.843,0,7.843l0.098,0.541c1.148-1.149,4.031-2.708,4.031-4.696c0-0.946,0-1.805,0-3.771
								c0-3.923-2.506-11.61-12.717-11.61c-10.211,0-12.715,7.687-12.715,11.61c0,1.966,0,2.825,0,3.771
								c0,1.989,2.861,3.547,4.012,4.696L27.412,28.761z"/>
						</defs>
						<clipPath id="SVGID_6_">
							<use xlink:href="#SVGID_5_"  overflow="visible"/>
						</clipPath>
						<polyline clip-path="url(#SVGID_6_)" fill="#FFC820" stroke="#007EC6" stroke-width="0.4" stroke-miterlimit="10" points="
							32.052,9.515 28.166,15.617 27.861,13.237 25.089,17.83 28.085,8.869 28.312,11.415 29.634,8.173 						"/>
						<polyline clip-path="url(#SVGID_6_)" fill="#FFC820" stroke="#007EC6" stroke-width="0.4" stroke-miterlimit="10" points="
							39.439,9.515 43.328,15.617 43.631,13.237 46.402,17.83 43.406,8.869 43.18,11.415 41.859,8.173 						"/>
					</g>
					<path fill="none" stroke="#000000" stroke-width="0.8" d="M27.412,28.761c0,0,0-7.167,0-7.843s0.406-2.162,1.758-2.162h13.663
						c1.352,0,1.756,1.486,1.756,2.162s0,7.843,0,7.843l0.098,0.541c1.148-1.149,4.031-2.708,4.031-4.696c0-0.946,0-1.805,0-3.771
						c0-3.923-2.506-11.61-12.717-11.61c-10.211,0-12.715,7.687-12.715,11.61c0,1.966,0,2.825,0,3.771
						c0,1.989,2.861,3.547,4.012,4.696L27.412,28.761z"/>
					<g>
						<g>
							
								<line fill="none" stroke="#B1C8D4" stroke-width="0.8" stroke-miterlimit="10" x1="31.199" y1="26.123" x2="31.199" y2="31.055"/>
							<line fill="none" stroke="#B1C8D4" stroke-width="0.8" stroke-miterlimit="10" x1="36" y1="26.123" x2="36" y2="31.055"/>
							
								<line fill="none" stroke="#B1C8D4" stroke-width="0.8" stroke-miterlimit="10" x1="40.803" y1="26.123" x2="40.803" y2="31.055"/>
						</g>
					</g>
				</g>
				<g>
					
						<line fill="none" stroke="#000000" stroke-width="1.2" stroke-linecap="round" stroke-linejoin="round" stroke-miterlimit="10" x1="23.664" y1="21.457" x2="23.664" y2="22.882"/>
					
						<line fill="none" stroke="#000000" stroke-width="1.2" stroke-linecap="round" stroke-linejoin="round" stroke-miterlimit="10" x1="48.338" y1="21.457" x2="48.338" y2="22.882"/>
				</g>
			</g>
		</g>
		
			<path fill="none" stroke="#B1C8D4" stroke-width="0.8" stroke-linecap="round" stroke-linejoin="round" stroke-miterlimit="10" d="
			M44.619,26.079v3.05c0,1.08-0.875,1.956-1.955,1.956H29.337c-1.08,0-1.955-0.875-1.955-1.956v-3.05"/>
		
			<path fill="none" stroke="#B1C8D4" stroke-width="0.8" stroke-linecap="round" stroke-linejoin="round" stroke-miterlimit="10" d="
			M49.139,21.93v2.11c0,1.08-0.877,1.956-1.957,1.956H24.818c-1.08,0-1.955-0.876-1.955-1.956v-2.11"/>
	</g>
</g>
</svg>
