<?xml version="1.0" encoding="utf-8"?>
<!-- Generator: Adobe Illustrator 16.0.4, SVG Export Plug-In . SVG Version: 6.00 Build 0)  -->
<!DOCTYPE svg PUBLIC "-//W3C//DTD SVG 1.1//EN" "http://www.w3.org/Graphics/SVG/1.1/DTD/svg11.dtd">
<svg version="1.1" id="Layer_1" xmlns="http://www.w3.org/2000/svg" xmlns:xlink="http://www.w3.org/1999/xlink" x="0px" y="0px"
	 width="72px" height="72px" viewBox="0 0 72 72" enable-background="new 0 0 72 72" xml:space="preserve">
<path fill="#FFFFFF" d="M13.231,69.3c0.228,0.825,16.275,1.783,23.394,1.783c6.622,0,22.926-1.042,22.918-1.783
	c-0.005-0.418-4.67-22.143-4.67-22.143l-0.73-19.241H21L17.021,51.13c0,0-0.828,6.791-1.938,12.083
	C14.4,66.474,13.208,69.217,13.231,69.3z"/>
<g>
	<g>
		
			<radialGradient id="SVGID_1_" cx="251.5234" cy="-347.668" r="7.8513" gradientTransform="matrix(0.9906 -0.1371 -0.1371 -0.9906 -267.4354 -255.5553)" gradientUnits="userSpaceOnUse">
			<stop  offset="0.2857" style="stop-color:#FF81FF"/>
			<stop  offset="1" style="stop-color:#55E700"/>
		</radialGradient>
		<path fill="url(#SVGID_1_)" d="M21.618,64.051c-0.287,0-0.54-0.104-0.73-0.301c-0.906-0.934-0.958-2.998-0.175-6.906
			c0.779-3.888,2.633-7.08,2.711-7.215c3.023-4.324,9.164-4.966,12.557-4.966c0.218,0,0.426,0.003,0.621,0.008
			c0.443,0.011,0.89,0.048,1.325,0.11l0.364,0.053l0.059,0.364c0.142,0.884,0.277,1.856,0.4,2.918
			c0.309,2.677-0.166,4.521-0.617,5.597L38,54.029l-0.521-0.014c-1.28,0-2.677,0.391-3.556,0.992
			c-1.197,0.822-2.746,3.133-3.989,4.987c-0.702,1.048-1.308,1.953-1.749,2.437c-0.908,0.998-2.169,1.52-2.946,1.52
			c-0.679,0-0.935-0.396-0.947-0.736c-0.009-0.244,0.044-0.503,0.096-0.752c0.001-0.007,0.003-0.014,0.004-0.021
			c-0.161,0.117-0.348,0.265-0.505,0.388C23.116,63.43,22.32,64.051,21.618,64.051z"/>
		<path d="M35.981,45.163c0.214,0,0.418,0.003,0.608,0.007c0.405,0.01,0.83,0.044,1.267,0.105c0.139,0.877,0.275,1.845,0.396,2.896
			c0.288,2.497-0.115,4.236-0.58,5.346c-0.064-0.002-0.13-0.002-0.195-0.002c-1.449,0-2.909,0.442-3.836,1.08
			c-1.968,1.35-4.643,6.2-5.825,7.498c-0.823,0.904-1.957,1.356-2.576,1.356c-0.27,0-0.442-0.086-0.448-0.257
			c-0.02-0.541,0.428-1.461-0.074-1.461c-0.022,0-0.045,0.002-0.07,0.006c-0.527,0.072-2.13,1.81-3.029,1.81
			c-0.144,0-0.271-0.045-0.371-0.149c-0.728-0.75-0.815-2.609-0.043-6.459c0.772-3.851,2.653-7.061,2.653-7.061
			C26.702,45.812,32.672,45.163,35.981,45.163 M35.981,44.163c-3.49,0-9.813,0.669-12.945,5.146l-0.023,0.033l-0.02,0.035
			c-0.08,0.137-1.975,3.4-2.771,7.369c-0.83,4.143-0.742,6.273,0.306,7.354c0.283,0.291,0.67,0.451,1.089,0.451
			c0.749,0,1.492-0.496,2.215-1.048c0.134,0.496,0.591,0.949,1.406,0.949c0.859,0,2.263-0.527,3.315-1.683
			c0.465-0.512,1.081-1.431,1.794-2.494c1.156-1.726,2.739-4.088,3.857-4.854c0.801-0.55,2.085-0.905,3.272-0.905l0.166,0.002
			l0.686,0.02l0.265-0.633c0.69-1.646,0.909-3.612,0.651-5.846c-0.113-0.984-0.245-1.945-0.403-2.939l-0.116-0.73l-0.73-0.104
			c-0.458-0.064-0.924-0.104-1.383-0.115C36.416,44.166,36.204,44.163,35.981,44.163L35.981,44.163z"/>
	</g>
	<path d="M26.792,63.447c0,0,0.187-0.125,0.477-0.369c0.14-0.13,0.325-0.268,0.494-0.473c0.183-0.188,0.371-0.412,0.553-0.674
		c0.209-0.242,0.348-0.559,0.512-0.875c0.171-0.315,0.217-0.701,0.357-1.058c0.041-0.38,0.09-0.793,0.112-1.172
		c-0.01-0.453-0.044-0.824-0.156-1.22c-0.082-0.399-0.254-0.769-0.438-1.119c-0.218-0.329-0.433-0.662-0.722-0.912
		c-0.272-0.268-0.58-0.475-0.884-0.658c-0.313-0.169-0.63-0.288-0.934-0.377c-0.308-0.068-0.593-0.133-0.854-0.158
		c-0.26-0.041-0.49-0.023-0.681-0.035c-0.384,0.019-0.603,0.029-0.603,0.029s0.208-0.07,0.587-0.169
		c0.192-0.022,0.427-0.085,0.702-0.093c0.276-0.027,0.589-0.018,0.931,0.029c0.34,0.058,0.704,0.148,1.077,0.299
		c0.364,0.164,0.751,0.361,1.08,0.658c0.693,0.561,1.211,1.414,1.435,2.33c0.122,0.453,0.153,0.967,0.152,1.375
		c-0.024,0.48-0.121,0.912-0.192,1.344c-0.167,0.406-0.282,0.818-0.507,1.147c-0.22,0.332-0.411,0.653-0.664,0.89
		c-0.119,0.123-0.223,0.248-0.338,0.352c-0.123,0.094-0.24,0.184-0.35,0.268c-0.211,0.174-0.428,0.282-0.591,0.387
		C27.003,63.382,26.792,63.447,26.792,63.447z"/>
	<path d="M21.509,63.8c0,0,2.119-1.352,2.928-2.069c0.808-0.717,3.184-1.31,3.598-1.595c0.414-0.284-0.07,0.312-1.44,1.069
		c-1.37,0.757-2.737,2.08-3.831,2.648C21.671,64.421,21.39,64.309,21.509,63.8z"/>
	<g>
		<path d="M20.959,63.201c-0.345,0.048-0.522-0.064-0.592-0.127l0.337-0.42c0.002,0.003,0.41,0.168,1.578-0.747
			c0.388-0.304,0.751-0.614,1.101-0.914c0.966-0.828,1.879-1.609,2.931-1.871c0.916-0.233,1.249,0.28,1.345,0.512
			c0.182,0.437,0.122,0.832-0.161,1.002l-0.549,0.134c0.027-0.053,0.321-0.778,0.172-1.004c-0.109-0.164-0.331-0.205-0.677-0.121
			c-0.929,0.231-1.755,0.938-2.711,1.758c-0.356,0.305-0.725,0.621-1.12,0.931C21.843,62.938,21.313,63.152,20.959,63.201z"/>
	</g>
	<ellipse transform="matrix(-0.1372 -0.9905 0.9905 -0.1372 -32.1458 89.8306)" cx="23.05" cy="58.916" rx="0.744" ry="0.801"/>
	<ellipse transform="matrix(-0.1371 -0.9906 0.9906 -0.1371 -36.3925 91.4781)" cx="21.648" cy="61.59" rx="0.253" ry="0.281"/>
	<path d="M31.173,58.086c0,0,0.399,1.448,1.323,1.773c0.924,0.326,1.68,0.052,1.68,0.052s-1.436-2.183-1.299-3.649
		C33.014,54.796,31.173,58.086,31.173,58.086z"/>
	<g>
		<path fill="#7BB07F" d="M34.968,57.805c-1.451-0.029-2.282-0.935-2.316-0.973l-0.265-0.295l0.226-0.325
			c0.024-0.035,0.606-0.866,1.5-1.479l0.275-0.188l0.28,0.182c0.78,0.506,2.146,1.359,2.488,1.502
			c0.376,0.157,0.457,0.47,0.414,0.688c-0.176,0.88-2.461,0.89-2.484,0.89L34.968,57.805z"/>
		<g>
			<path d="M34.396,55.145c0,0,2.056,1.332,2.568,1.545c0.497,0.207-0.664,0.617-1.878,0.617c-0.036,0-0.071,0-0.107-0.002
				c-1.251-0.025-1.955-0.807-1.955-0.807S33.567,55.713,34.396,55.145 M34.38,53.943l-0.55,0.377
				c-0.953,0.654-1.562,1.512-1.629,1.607l-0.451,0.651l0.53,0.588c0.102,0.112,1.041,1.104,2.678,1.138l0.128,0.002
				c0.637,0,2.734-0.094,2.975-1.291c0.088-0.438-0.099-0.994-0.713-1.248c-0.264-0.11-1.456-0.845-2.408-1.461L34.38,53.943
				L34.38,53.943z"/>
		</g>
	</g>
</g>
<g>
	<g>
		
			<radialGradient id="SVGID_2_" cx="90.4336" cy="-313.645" r="8.8035" gradientTransform="matrix(0.7912 -0.6115 -0.6115 -0.7912 -221.6751 -138.2238)" gradientUnits="userSpaceOnUse">
			<stop  offset="0.2857" style="stop-color:#FF81FF"/>
			<stop  offset="1" style="stop-color:#55E700"/>
		</radialGradient>
		<path fill="url(#SVGID_2_)" d="M42.341,66.589c-0.235,0-0.437-0.098-0.565-0.276c-0.23-0.316-0.131-0.742-0.037-1.035
			c0.232-0.721,1.119-2.314,1.975-3.856c0.582-1.049,1.242-2.237,1.322-2.515c0.145-0.648-0.943-5.156-3.418-6.627
			c-0.497-0.295-1.049-0.443-1.641-0.443c-0.703,0-1.477,0.216-2.232,0.622l-0.643,0.347l-0.09-0.726
			c-0.13-1.04-0.593-2.698-2.062-4.69c-0.624-0.849-1.219-1.613-1.772-2.301l-0.424-0.527l0.629-0.25
			c1.192-0.477,2.405-0.718,3.604-0.718c2.658,0,5.203,1.168,7.563,3.474c3.894,3.8,4.22,7.879,4.358,9.619
			c0.021,0.26,0.045,0.556,0.068,0.633c0.101,0.226,0.237,0.318,0.75,0.642c0.338,0.212,0.801,0.503,1.42,0.972
			c0.883,0.666,2.537,2.168,2.492,3.094c-0.014,0.244-0.135,0.455-0.336,0.576c-0.175,0.106-0.48,0.217-1.43,0.217l0,0
			c-0.906,0-2.066-0.098-2.881-0.178c-0.098-0.01-0.194-0.015-0.291-0.015c-1.075,0-2.143,0.613-3.682,2.117
			C43.129,66.589,42.557,66.589,42.341,66.589z"/>
		<path d="M36.986,44.092c2.177,0,4.662,0.838,7.215,3.33c4.628,4.518,4.035,9.449,4.314,10.085c0.279,0.638,0.797,0.663,2.33,1.82
			c1.534,1.157,2.633,2.58,2.199,2.845c-0.171,0.104-0.613,0.143-1.17,0.143c-0.859,0-1.992-0.09-2.831-0.174
			c-0.114-0.012-0.229-0.018-0.342-0.018c-1.253,0-2.435,0.702-4.03,2.261c-1.104,1.078-1.956,1.705-2.33,1.705
			c-0.216,0-0.271-0.208-0.127-0.657c0.398-1.231,3.087-5.652,3.301-6.387c0.215-0.734-0.89-5.561-3.644-7.195
			c-0.606-0.359-1.249-0.515-1.896-0.515c-0.844,0-1.692,0.265-2.469,0.681c-0.148-1.195-0.664-2.904-2.155-4.927
			c-0.629-0.853-1.228-1.624-1.785-2.315C34.573,44.371,35.727,44.092,36.986,44.092 M36.986,43.092
			c-1.264,0-2.54,0.254-3.791,0.752l-1.257,0.502l0.849,1.055c0.614,0.763,1.189,1.509,1.759,2.283
			c1.406,1.906,1.846,3.476,1.969,4.457l0.18,1.447l1.285-0.689c0.686-0.369,1.375-0.562,1.996-0.562c0.5,0,0.967,0.126,1.385,0.374
			c2.16,1.282,3.228,5.211,3.182,6.09c-0.129,0.327-0.784,1.507-1.266,2.375c-1.034,1.862-1.783,3.236-2.014,3.948
			c-0.074,0.229-0.3,0.924,0.107,1.482c0.223,0.308,0.577,0.483,0.97,0.483c0.491,0,1.234-0.235,3.029-1.989
			c1.437-1.404,2.401-1.977,3.332-1.977c0.081,0,0.161,0.004,0.243,0.012c0.826,0.082,2.005,0.18,2.931,0.18
			c0.875,0,1.349-0.08,1.69-0.289c0.344-0.209,0.553-0.565,0.574-0.979c0.067-1.365-2.229-3.17-2.69-3.518
			c-0.638-0.481-1.11-0.778-1.456-0.995c-0.391-0.246-0.493-0.319-0.539-0.388c-0.016-0.105-0.033-0.322-0.047-0.502
			c-0.145-1.797-0.481-6.008-4.508-9.938C42.441,44.309,39.779,43.092,36.986,43.092L36.986,43.092z"/>
	</g>
	<g>
		<path d="M48.141,59.704c-0.312,0.241-0.678,0.377-1.074,0.397c-1.693,0.082-2.323-1.229-2.35-1.287l0.652-0.301l-0.326,0.15
			l0.325-0.154c0.019,0.038,0.463,0.932,1.661,0.872c0.361-0.017,0.67-0.183,0.919-0.491c0.46-0.57,0.603-1.486,0.53-1.926
			l0.709-0.117c0.11,0.664-0.092,1.764-0.68,2.494C48.395,59.482,48.271,59.604,48.141,59.704z"/>
	</g>
</g>
<path fill="#FFFFFF" d="M28.702,38.242c0,0-1.517,2.472-1.517,6.967s3.371,7.922,6.349,8.764c2.978,0.844,6.573,0.844,9.438-3.146
	s2.079-5.45,1.91-8.54s-1.461-4.719-2.865-4.832C40.611,37.343,29.657,36.388,28.702,38.242z"/>
<g>
	<path d="M13.231,69.3c4.281-5.962,4.33-19.903,4.33-20.495h-1.438c0,0.141-0.049,14.069-4.06,19.656L13.231,69.3z"/>
</g>
<g>
	<path d="M59.543,69.3c-4.281-5.962-4.33-19.903-4.33-20.495h1.438c0,0.141,0.05,14.069,4.061,19.656L59.543,69.3z"/>
</g>
<path fill="#55E700" stroke="#000000" stroke-width="1.6" stroke-miterlimit="10" d="M36.137,4.153
	c-12.938,0-23.463,10.526-23.463,23.464v16.545c0,2.482,2.012,4.495,4.495,4.495c2.482,0,4.495-2.013,4.495-4.495V28.626
	c2.176-0.652,6.357-1.396,14.114-1.396c8.4,0,12.728,0.954,14.833,1.703v15.228c0,2.483,2.014,4.495,4.496,4.495
	s4.494-2.012,4.494-4.495V27.617C59.6,14.678,49.075,4.153,36.137,4.153z"/>
<rect x="33.201" y="4.027" width="5.404" height="19.327"/>
<path fill="#FFFFFF" stroke="#000000" stroke-miterlimit="10" d="M43.247,27.1c0,0,0-3.781,0-4.058s-1.756-1.57-7.274-1.57
	s-7.414,1.18-7.414,1.489s0,4.382,0,4.382s-0.03,0.618,0.897,0.534c0.927-0.084,3.736-0.197,6.714-0.197
	c2.979,0,5.871,0.197,6.264,0.225C42.828,27.933,43.247,27.98,43.247,27.1z"/>
<path d="M18.382,42.764c0,0.68-0.551,1.231-1.231,1.231l0,0c-0.679,0-1.231-0.552-1.231-1.231v-3.511
	c0-0.679,0.551-1.231,1.231-1.231l0,0c0.679,0,1.231,0.552,1.231,1.231V42.764z"/>
<ellipse cx="19.792" cy="42.756" rx="0.599" ry="0.843"/>
<path d="M54.186,42.764c0,0.68,0.551,1.231,1.23,1.231l0,0c0.68,0,1.23-0.552,1.23-1.231v-3.511c0-0.679-0.551-1.231-1.23-1.231l0,0
	c-0.68,0-1.23,0.552-1.23,1.231V42.764z"/>
<ellipse cx="54.873" cy="46.314" rx="0.6" ry="0.843"/>
<ellipse cx="52.775" cy="42.756" rx="0.6" ry="0.843"/>
<g>
	<path d="M29.488,34.899c0,0-1.347,1.607-3.213,1.451c-1.866-0.156-3.11-1.762-2.54-3.006c0.57-1.244,1.71-0.829,2.747-0.052
		s1.451,0.881,2.488,0.674C30.007,33.759,29.955,34.484,29.488,34.899z"/>
	<path d="M42.63,34.899c0,0,1.347,1.607,3.213,1.451c1.866-0.156,3.11-1.762,2.54-3.006c-0.57-1.244-1.71-0.829-2.746-0.052
		c-1.037,0.777-1.451,0.881-2.488,0.674S42.164,34.484,42.63,34.899z"/>
</g>
<path d="M43.615,38.682c0,0,0.414,0.934,0.828,4.043c0.416,3.11-1.243,7.567-3.42,8.76c-2.178,1.191-3.369,0.518-3.524-0.727
	c-0.156-1.244,1.037-2.021,2.54-3.732c1.503-1.709,0.829-3.731-0.311-4.353c-1.141-0.622-3.266-0.259-3.266-0.259
	c-0.144,0-0.277,0.009-0.403,0.023c-0.127-0.015-0.26-0.023-0.403-0.023c0,0-2.125-0.363-3.265,0.259s-1.814,2.644-0.311,4.353
	c1.503,1.711,2.695,2.488,2.54,3.732c-0.155,1.244-1.347,1.918-3.524,0.727c-2.177-1.192-3.835-5.649-3.421-8.76
	c0.415-3.109,0.829-4.043,0.829-4.043s-1.97,1.399-1.762,6.53c0.207,5.131,3.628,9.744,8.137,9.692
	c0.444-0.006,0.828-0.03,1.181-0.065c0.353,0.035,0.737,0.06,1.181,0.065c4.509,0.052,7.93-4.562,8.137-9.692
	C45.585,40.082,43.615,38.682,43.615,38.682z"/>
<circle fill="#FFFFFF" cx="27.352" cy="35.009" r="0.537"/>
<circle fill="#FFFFFF" cx="46.82" cy="35.009" r="0.537"/>
<path fill="#FFFFFF" d="M21.473,14.72c1.344-1.45,2.704-2.521,3.915-3.288c-0.096-0.162-0.2-0.317-0.32-0.457
	c-1.723-2.023-3.221-3.146-6.892-3.671c-3.671-0.524-8.165,2.098-7.716,8.24c0.449,6.143,5.543,8.09,5.543,8.09
	c0.375,0.17,0.752,0.269,1.128,0.32C17.489,22.087,18.574,17.846,21.473,14.72z"/>
<path fill="#FFFFFF" d="M53.913,7.304c-3.671,0.524-5.169,1.648-6.892,3.671c-0.106,0.124-0.203,0.259-0.289,0.4
	c1.233,0.77,2.627,1.86,4.004,3.345c2.89,3.116,3.979,7.341,4.338,9.218c0.337-0.056,0.674-0.152,1.01-0.304
	c0,0,5.094-1.948,5.543-8.09C62.078,9.402,57.584,6.78,53.913,7.304z"/>
<path d="M45.43,10.567c0,0,0.228,0.195,0.637,0.518c0.207,0.16,0.457,0.354,0.744,0.577c0.145,0.111,0.297,0.23,0.459,0.355
	c0.146,0.138,0.299,0.284,0.459,0.436c0.319,0.298,0.666,0.621,1.03,0.963c0.373,0.328,0.683,0.773,1.058,1.165
	c0.369,0.404,0.744,0.822,1.06,1.302c0.329,0.468,0.685,0.928,1.003,1.413c0.289,0.504,0.577,1.008,0.861,1.504
	c0.311,0.483,0.488,1.022,0.723,1.515c0.204,0.505,0.479,0.968,0.6,1.456c0.158,0.478,0.307,0.931,0.443,1.348
	c0.158,0.415,0.238,0.81,0.314,1.161c0.08,0.352,0.15,0.659,0.205,0.912c0.119,0.507,0.199,0.8,0.199,0.8s0-0.297-0.024-0.82
	c-0.015-0.262-0.03-0.581-0.05-0.946c-0.016-0.368-0.026-0.786-0.142-1.223c-0.095-0.443-0.196-0.924-0.306-1.432
	c-0.084-0.518-0.314-1.02-0.508-1.555c-0.221-0.522-0.36-1.107-0.684-1.614c-0.289-0.524-0.582-1.057-0.875-1.589
	c-0.342-0.502-0.722-0.979-1.074-1.461c-0.334-0.499-0.766-0.904-1.166-1.308c-0.41-0.397-0.768-0.811-1.19-1.126
	c-0.418-0.314-0.813-0.61-1.179-0.884c-0.184-0.132-0.354-0.268-0.524-0.38c-0.18-0.096-0.351-0.187-0.511-0.273
	c-0.32-0.171-0.6-0.321-0.83-0.444C45.7,10.696,45.43,10.567,45.43,10.567z"/>
<path d="M53.727,20.489c0,0,5.131-2.322,4.231-6.292c-0.899-3.97-6.292-2.397-8.315-0.15C49.643,14.046,51.619,15.853,53.727,20.489
	z"/>
<path d="M18.364,20.489c0,0-5.131-2.322-4.232-6.292c0.899-3.97,6.292-2.397,8.315-0.15C22.447,14.046,20.471,15.853,18.364,20.489z
	"/>
<path d="M26.661,10.567c0,0-0.228,0.195-0.638,0.518c-0.206,0.16-0.457,0.354-0.744,0.577c-0.144,0.111-0.296,0.23-0.457,0.355
	c-0.146,0.138-0.299,0.284-0.46,0.436c-0.319,0.298-0.665,0.621-1.03,0.963c-0.373,0.328-0.682,0.773-1.058,1.165
	c-0.368,0.404-0.744,0.822-1.059,1.302c-0.329,0.468-0.685,0.928-1.003,1.413c-0.289,0.504-0.577,1.008-0.861,1.504
	c-0.311,0.483-0.488,1.022-0.723,1.515c-0.204,0.505-0.478,0.968-0.6,1.456c-0.157,0.478-0.306,0.931-0.443,1.348
	c-0.158,0.415-0.237,0.81-0.315,1.161c-0.079,0.352-0.149,0.659-0.205,0.912c-0.118,0.507-0.198,0.8-0.198,0.8
	s0.001-0.297,0.024-0.82c0.014-0.262,0.03-0.581,0.049-0.946c0.016-0.368,0.027-0.786,0.143-1.223
	c0.095-0.443,0.197-0.924,0.305-1.432c0.084-0.518,0.315-1.02,0.507-1.555c0.222-0.522,0.361-1.107,0.685-1.614
	c0.289-0.524,0.582-1.057,0.875-1.589c0.341-0.502,0.721-0.979,1.074-1.461c0.334-0.499,0.766-0.904,1.166-1.308
	c0.409-0.397,0.767-0.811,1.19-1.126c0.418-0.314,0.813-0.61,1.178-0.884c0.184-0.132,0.354-0.268,0.525-0.38
	c0.18-0.096,0.35-0.187,0.511-0.273c0.321-0.171,0.6-0.321,0.83-0.444C26.39,10.696,26.661,10.567,26.661,10.567z"/>
<g>
	<path d="M16.959,25.152c-0.088-0.042-9.12-4.67-6.893-12.94c0.836-3.105,2.914-5.077,5.852-5.552
		c3.533-0.571,8.282,1.546,10.087,4.278l-1.201,0.793c-1.332-2.018-5.38-4.179-8.656-3.651c-1.66,0.269-3.821,1.268-4.693,4.506
		c-1.916,7.111,5.446,10.774,5.76,10.926L16.959,25.152z"/>
</g>
<g>
	<path d="M55.131,25.152c0.088-0.042,9.12-4.67,6.893-12.94c-0.836-3.105-2.914-5.077-5.852-5.552
		c-3.533-0.571-8.281,1.546-10.087,4.278l1.201,0.793c1.332-2.018,5.38-4.179,8.655-3.651c1.66,0.269,3.822,1.268,4.693,4.506
		c1.916,7.111-5.445,10.774-5.76,10.926L55.131,25.152z"/>
</g>
</svg>
