<?xml version="1.0" encoding="utf-8"?>
<!-- Generator: Adobe Illustrator 19.2.1, SVG Export Plug-In . SVG Version: 6.00 Build 0)  -->
<svg version="1.1" id="Layer_1" xmlns="http://www.w3.org/2000/svg" xmlns:xlink="http://www.w3.org/1999/xlink" x="0px" y="0px"
	 viewBox="0 0 72 72" style="enable-background:new 0 0 72 72;" xml:space="preserve">
<style type="text/css">
	.st0{fill:#FFFFFF;}
	.st1{fill:#FF0000;}
	.st2{fill:#0B76B2;}
	.st3{fill:none;}
</style>
<path class="st0" d="M50.6,23.9c-0.4-0.6-0.8-1.2-1.2-1.7L5.3,36.8c0,1.7,0.2,3.4,0.6,5c0,0.2,0.1,0.4,0.1,0.5l46-15.2
	C51.6,26,51.2,25,50.6,23.9z M37.9,14.3l-28,9.2c-1.6,2.1-2.8,4.5-3.6,7l38.5-12.7C42.7,16.4,40.3,15.1,37.9,14.3z"/>
<path class="st1" d="M36.8,14.1c-8.6-2.1-17.8,0.3-24.2,6.4c-1,1-2,2-2.8,3.1l28-9.2C37.5,14.2,37.2,14.1,36.8,14.1z M44.7,17.9
	L6.3,30.6c-0.6,2-0.9,4.1-1,6.1l44.1-14.5C48,20.6,46.4,19.2,44.7,17.9z M49.2,33.5c1.4-0.6,3.6-1.2,3.8-2.3c0-1.4-0.3-2.7-0.9-4
	l-46,15.2c0.5,1.8,1.2,3.5,1.9,5.2l39.9-13.2C48.3,34,48.7,33.7,49.2,33.5z"/>
<path class="st2" d="M7.5,47.7l27.8-9.2l-7.8-25.4c0,0-15.8,0.8-21.7,17.9C5.8,31.1,3.1,38,7.5,47.7z"/>
<path class="st1" d="M30.3,57.7c2,1.3,4.6,2.2,9.1,0.8s6.2-3.9,7-6.1L30.3,57.7z M45.3,41.1l-9.9,3.3c0.7,1.4,0.2,3.1-1.3,3.8
	c-1.4,0.7-3.1,0.2-3.8-1.3c0,0,0,0,0-0.1c-0.1-0.3-0.2-0.5-0.2-0.8l-19.8,6.5l0.3,0.5c-0.3,0.1-0.4,0.4-0.2,0.7c0,0,0,0.1,0.1,0.1
	c0.4,0.7,0.7,1.5,0.9,2.3c0.1,0.8,0.1,1.4,0.7,1.7l34.6-11.4C46.1,44.7,45.6,42.9,45.3,41.1z"/>
<path class="st0" d="M47,50.1c0.1-1.2-0.1-2.4-0.5-3.6L12,57.9c0.2,0.1,0.3,0.2,0.5,0.2c1.1,0.2,4.4-1.1,5.1-1.4
	c0.4,0,0.6-0.4,0.6-0.7c0.1-0.1,0.4-0.1,1.7-0.6s5.8-0.7,8.3,1c0.7,0.5,1.3,1,2,1.4l16.1-5.3C46.8,51.6,46.9,50.8,47,50.1z
	 M31.9,43.2c1.3-0.5,2.8,0,3.5,1.2l9.9-3.2c0-0.2-0.1-0.3-0.1-0.5c-0.2-2.4,0.8-4.7,2.7-6.2L7.9,47.5c1,2.3,1.9,4.2,2.4,5L30.2,46
	C30.1,44.8,30.8,43.6,31.9,43.2z"/>
<path class="st0" d="M39.5,55.3c-0.7,0-1.3-0.5-1.3-1.2c0-0.7,0.5-1.3,1.2-1.3s1.3,0.5,1.3,1.2c0,0.5-0.3,1-0.8,1.2
	C39.8,55.3,39.6,55.3,39.5,55.3z"/>
<path d="M39.5,53.3c0.4,0,0.8,0.4,0.8,0.8c0,0.3-0.2,0.6-0.5,0.7c-0.1,0-0.2,0.1-0.3,0.1c-0.4,0-0.8-0.4-0.8-0.8
	c0-0.3,0.2-0.6,0.5-0.7C39.3,53.3,39.4,53.3,39.5,53.3 M39.5,52.4c-0.9,0-1.7,0.8-1.7,1.7c0,0.9,0.8,1.7,1.7,1.7
	c0.9,0,1.7-0.8,1.7-1.7c0-0.2,0-0.4-0.1-0.6C40.8,52.8,40.2,52.4,39.5,52.4z"/>
<circle cx="39.5" cy="54.1" r="0.5"/>
<ellipse transform="matrix(0.9272 -0.3746 0.3746 0.9272 -17.3596 18.6904)" class="st0" cx="39.4" cy="54" rx="0.4" ry="0.3"/>
<path class="st0" d="M40.5,53.7C40.5,53.8,40.4,53.8,40.5,53.7C40.4,53.7,40.4,53.7,40.5,53.7c-0.4-0.5-1-0.6-1.5-0.4
	c-0.4,0.2-0.6,0.7-0.5,1.1c0,0,0,0.1,0,0.1c0,0-0.1,0-0.1,0c-0.2-0.6,0-1.2,0.6-1.5S40.3,53.1,40.5,53.7
	C40.6,53.7,40.6,53.7,40.5,53.7C40.5,53.7,40.5,53.8,40.5,53.7z M29.9,55.3c-0.7,0-1.3-0.5-1.3-1.2c0-0.7,0.5-1.3,1.2-1.3
	s1.3,0.5,1.3,1.2c0,0.5-0.3,1-0.8,1.2C30.2,55.3,30.1,55.3,29.9,55.3z"/>
<path d="M29.9,53.3c0.4,0,0.8,0.4,0.8,0.8c0,0.3-0.2,0.6-0.5,0.7c-0.1,0-0.2,0.1-0.3,0.1c-0.4,0-0.8-0.4-0.8-0.8
	c0-0.3,0.2-0.6,0.5-0.7C29.7,53.3,29.8,53.3,29.9,53.3 M29.9,52.4c-0.9,0-1.7,0.8-1.7,1.7c0,0.9,0.8,1.7,1.7,1.7
	c0.9,0,1.7-0.8,1.7-1.7c0-0.2,0-0.4-0.1-0.6C31.2,52.8,30.6,52.4,29.9,52.4z"/>
<circle cx="29.9" cy="54.1" r="0.5"/>
<ellipse transform="matrix(0.9272 -0.3746 0.3746 0.9272 -18.0555 15.1124)" class="st0" cx="29.8" cy="54" rx="0.4" ry="0.3"/>
<path class="st0" d="M30.9,53.7C30.9,53.8,30.9,53.8,30.9,53.7c-0.4-0.5-1-0.6-1.5-0.4c-0.4,0.2-0.6,0.7-0.5,1.1c0,0,0,0.1,0,0.1
	c0,0-0.1,0-0.1,0c-0.2-0.6,0-1.2,0.6-1.5C30.1,52.8,30.8,53.1,30.9,53.7C31,53.7,31,53.7,30.9,53.7C31,53.8,31,53.8,30.9,53.7z
	 M48.8,39.1l1.3-0.6l1.3,2.8l-1.3,0.6L48.8,39.1z M13.1,58.5h-0.4c-0.9,0-1.7-0.7-1.7-1.6c0,0,0-0.1,0-0.1c-0.1-0.7-0.3-1.4-0.6-2
	l-0.1-0.2c-0.4-0.4-0.5-1.1-0.1-1.6c0.8-0.5,1.7-0.8,2.7-1h0.2c0.4,0,0.7,0.2,1,0.5l0.1,0.1c0.9,0.7,1.9,1.3,3,1.8
	c0.9,0.3,1.8,1,1.5,1.8s-1,0.9-2.4,1.4c-0.4,0.1-0.8,0.3-1.1,0.4C14.5,58.3,13.8,58.5,13.1,58.5L13.1,58.5z"/>
<path d="M13.1,52.3c0.3,0.1,0.7,0.3,0.9,0.5c1,0.7,2,1.4,3.1,1.9c0.7,0.2,1.4,0.8,1.2,1.3c-0.2,0.5-0.9,0.7-2.2,1.2
	c-1,0.4-2,0.7-3,0.8h-0.4c-0.7,0-1.3-0.5-1.3-1.2c0-0.1,0-0.1,0-0.2c-0.1-0.7-0.3-1.5-0.7-2.2c-0.3-0.6-0.6-0.9-0.2-1.3
	C11.3,52.9,12.1,52.6,13.1,52.3L13.1,52.3 M13.1,51.6h-0.3c-1,0.1-2,0.5-2.9,1.1c-0.5,0.6-0.5,1.5,0.1,2.1l0.1,0.2
	c0.3,0.6,0.5,1.2,0.6,1.8c0,1.1,0.9,2.1,2,2.1H13c0.8,0,1.6-0.2,2.3-0.5c0.3-0.1,0.6-0.2,1-0.3h0.1c1.5-0.5,2.4-0.7,2.7-1.6
	s-0.4-1.9-1.8-2.3c-1-0.5-2-1.1-2.9-1.8l-0.1-0.1C14,51.8,13.5,51.6,13.1,51.6L13.1,51.6z"/>
<path class="st3" d="M31.9,43.2c-1.2,0.5-1.9,1.6-1.8,2.9l5.2-1.7C34.7,43.1,33.2,42.6,31.9,43.2z M30.3,46.8
	c0.5,1.5,2.2,2.2,3.6,1.7c1.5-0.5,2.2-2.2,1.7-3.6c-0.1-0.2-0.2-0.4-0.3-0.6l-5.2,1.7C30.2,46.3,30.2,46.6,30.3,46.8z"/>
<path class="st0" d="M29.2,33.8l1,1.3l1.6-0.5l-1,1.3l0.9,1.3l-1.5-0.5l-1,1.3l0-1.6l-1.5-0.5l1.6-0.5
	C29.2,35.4,29.2,33.8,29.2,33.8z M24.3,30.3l1,1.3l1.6-0.5l-1,1.3l1,1.3l-1.5-0.5l-1,1.3l0-1.6l-1.5-0.5l1.6-0.5
	C24.3,31.9,24.3,30.3,24.3,30.3z M17.2,32.5l0.9,1.3l1.6-0.5l-1,1.3l0.9,1.3l-1.6-0.5l-1,1.3l0-1.6l-1.6-0.5l1.6-0.5L17.2,32.5z
	 M22.1,36l1,1.3l1.6-0.5l-1,1.3l1,1.3l-1.5-0.5l-1,1.3l0-1.6l-1.5-0.5l1.6-0.5C22.1,37.6,22.1,36,22.1,36z M15.1,38.2l0.9,1.3
	l1.6-0.5l-1,1.3l1,1.3L16,41.2l-1,1.3l0-1.6l-1.6-0.5l1.6-0.5L15.1,38.2z M10,34.8l0.9,1.3l1.6-0.5l-1,1.3l0.9,1.3l-1.6-0.5L10,39
	l0-1.6l-1.6-0.5l1.6-0.5C10,36.4,10,34.8,10,34.8z M8,40.4l0.9,1.3l1.6-0.5l-1,1.3l0.9,1.3l-1.5-0.5l-1,1.3l0-1.6l-1.6-0.5L8,42
	C8,42,8,40.4,8,40.4z M26.3,24.4l1,1.3l1.6-0.5l-1,1.3l0.9,1.3l-1.5-0.5l-1,1.3l0-1.6l-1.5-0.5l1.6-0.5
	C26.3,26.1,26.3,24.4,26.3,24.4z M21.4,21l0.9,1.3l1.6-0.5l-1,1.3l1,1.3l-1.5-0.5l-1,1.3l0-1.6l-1.6-0.5l1.6-0.5
	C21.4,22.6,21.4,21,21.4,21z M14.2,23.2l0.9,1.3l1.6-0.5l-1,1.3l0.9,1.3l-1.5-0.5l-1,1.3l0-1.6l-1.5-0.5l1.6-0.5
	C14.2,24.8,14.3,23.2,14.2,23.2z M19.2,26.7l0.9,1.3l1.6-0.5l-1,1.3l1,1.3l-1.5-0.5l-1,1.3l0-1.6l-1.5-0.5l1.6-0.5
	C19.2,28.3,19.2,26.7,19.2,26.7z M12.1,28.9l0.9,1.3l1.6-0.5l-1,1.3l0.9,1.3l-1.6-0.5l-1,1.3l0-1.6L10.6,31l1.6-0.5L12.1,28.9z
	 M23.4,15.2l0.9,1.3l1.6-0.5l-1,1.3l1,1.3l-1.5-0.5l-1,1.3l0-1.6l-1.5-0.5l1.6-0.5C23.4,16.8,23.4,15.2,23.4,15.2z M16.3,17.4
	l0.9,1.3l1.6-0.5l-1,1.3l1,1.3l-1.6-0.5l-1,1.3l0-1.6l-1.6-0.5l1.6-0.5C16.3,19.1,16.3,17.4,16.3,17.4z M9.2,23.9L9.2,23.9l1-1.2
	l1.6,0.5l-0.9-1.3C10.2,22.5,9.7,23.1,9.2,23.9z M6,32.4l-0.4-0.5c-0.3,1.1-0.4,2.2-0.5,3.4L6,34.1l1.5,0.5l-0.9-1.4l1-1.3L6,32.4z
	 M8,26.8l-0.3-0.4c-0.3,0.5-0.5,1.1-0.8,1.7l0.2,0.1v1.6l1-1.3l1.6,0.5l-1-1.3l1-1.3L8,26.8z"/>
<path d="M30.6,13.3c2.1,0,4.2,0.3,6.2,0.8c5.6,1.6,10.5,5.1,13.8,9.9c1.4,2.4,2.6,6.1,2.4,7.2c-0.2,1.1-2.4,1.7-3.8,2.3
	c-1.4,0.6-4.4,3.5-4,7.1s2.2,7.2,1.8,9.5s-1.3,6.4-7.5,8.3c-1.3,0.5-2.8,0.7-4.2,0.8c-3.3,0-5.1-1.7-7-2.9c-1.7-1-3.6-1.4-5.5-1.3
	c-0.9,0-1.9,0.1-2.8,0.3c-1.3,0.5-1.6,0.6-1.7,0.6c0,0.4-0.3,0.7-0.6,0.7c-0.7,0.3-3.5,1.5-4.9,1.5h-0.3c-1.1-0.3-1.1-1-1.2-1.9
	c-0.2-0.8-0.5-1.6-0.8-2.3c-0.2-0.2-0.2-0.5,0-0.7c0,0,0.1-0.1,0.1-0.1c-1.9-3.6-3.5-7.4-4.7-11.3c-1.8-7.8,0.8-16,6.7-21.3
	C17.5,15.9,24,13.3,30.6,13.3 M33,48.7c1.6,0,2.8-1.3,2.8-2.9s-1.3-2.8-2.9-2.8c-1.6,0-2.8,1.3-2.8,2.9c0,0.3,0.1,0.7,0.2,1
	C30.7,47.9,31.8,48.7,33,48.7 M30.6,12c-7,0-13.8,2.7-18.9,7.5c-6.3,5.7-9,14.3-7.1,22.6c1.1,3.8,2.6,7.4,4.5,10.9
	c-0.1,0.5-0.1,1,0.2,1.5v0.1c0.3,0.6,0.5,1.2,0.7,1.8c0,0.1,0,0.2,0.1,0.3c0,1.3,1,2.4,2.3,2.6c0.2,0,0.4,0,0.5,0
	c1.8-0.2,3.5-0.7,5.1-1.5l0.2-0.1c0.5-0.2,0.9-0.5,1.2-1l1.1-0.4c0.8-0.2,1.5-0.2,2.3-0.2c1.7-0.1,3.3,0.3,4.8,1.1l0.7,0.5
	c2,1.6,4.4,2.6,7,2.6c1.6,0,3.1-0.3,4.6-0.8c7.4-2.4,8.1-7.7,8.4-9.4c0.1-1.8-0.2-3.7-0.8-5.4c-0.4-1.5-0.8-2.9-1-4.5
	c-0.4-3.1,2.4-5.4,3.2-5.8l0.8-0.3c1.6-0.6,3.4-1.3,3.7-2.9s-1.3-6-2.5-8.1c-3.5-5.1-8.6-8.8-14.6-10.5C35,12.3,32.8,12,30.6,12z
	 M33,47.3c-0.9,0-1.6-0.6-1.6-1.5c0-0.9,0.6-1.6,1.5-1.6c0.9,0,1.6,0.6,1.6,1.5c0,0.6-0.3,1.2-0.9,1.5C33.4,47.3,33.2,47.3,33,47.3
	L33,47.3z"/>
<path d="M67.9,50.9c-0.3-1.5-2-8.1-3.1-8.9c-0.3-0.2-0.7-0.4-1.1-0.4c-0.5,0-1,0.1-1.5,0.2h0c-0.4,0.1-1,0.2-1.6,0.3L60,42.2
	c-2.2,0.4-4.5,0.7-6.8,0.7h-0.4L52,41.2l-0.5-1.1l-0.2-0.4l-0.1-0.3l-0.5-1.1L50.6,38l-0.3-0.5l-0.8-1.7l-0.2-0.4l-0.1-0.2L48.7,34
	l-0.2-0.5l-0.2-0.4c0.7-0.3,1.6-0.6,2.7-1l0.4-0.1c0.6-0.2,1.5-0.4,2.2-0.6c0.3,0.2,0.7,0.3,1,0.3c0.4,0,0.7-0.1,1-0.3
	c1-0.4,1.5-1.6,1-2.6c0,0,0-0.1,0-0.1c-0.2-0.5-1.9-3.8-1.9-3.8c-0.3-0.5-0.8-0.8-1.3-0.8c-0.2,0-0.4,0-0.5,0.1l-1.4,0.5l-0.2,0.1
	l0.8,0.4L53,28c-0.8,0.2-1.9,0.5-2.7,0.8l-0.3,0.1c-2.4,0.8-4.7,1.7-5.5,3c-0.4,0.7-3.1,5.4-5.3,9.3h-0.2c-0.3,0-0.6,0.2-0.8,0.5
	L37,44c-0.1,0.3-0.1,0.6,0,0.9L35.2,48c-0.5,0.8-0.2,1.8,0.6,2.3c0.3,0.1,0.5,0.2,0.8,0.2c0.2,0,0.4,0,0.6,0c0.1,0,0.1-0.1,0.2-0.1
	c2.5,0.3,14,1.6,15,1.7h0.6c1,2.6,3,4.7,5.5,5.8c1.3,0.6,2.8,0.9,4.2,0.9c1.5,0,2.9-0.2,4.3-0.7c0.5-0.2,0.9-0.5,1.2-0.9
	C68.8,56.4,68.8,55.7,67.9,50.9z M65.2,55.2c-0.8,0.2-1.6,0.3-2.4,0.3c-0.9,0-1.8-0.2-2.7-0.5c-1.4-0.6-2.6-1.7-3.3-3
	c1.9-0.2,3.7-0.5,4.7-0.7l2.8-0.6c0.1,0.3,0.1,0.6,0.2,0.9C64.7,52.4,65,54.1,65.2,55.2z M63.4,47.3l-2.6,0.6
	c-1.8,0.3-3.7,0.6-5.5,0.7l-1-2.3c2.1-0.1,4.2-0.4,6.3-0.7h0.1l0.4-0.1c0.6-0.1,1.1-0.2,1.6-0.3C62.8,45.6,63.1,46.4,63.4,47.3z
	 M44.5,46.9c0.4-0.5,0.5-1.2,0.3-1.8c-0.2-0.7-0.8-1.4-1.5-1.7l-1.2-0.7l0.7-1.2c1.5,1.6,4.2,4,7.1,4.5l0.5,0.1l1.1,2.4l-7.9-0.9
	C44,47.5,44.3,47.2,44.5,46.9z M44.6,38.4l1.3-2.3l2.1,4.6l0.1,0.3l0.4,1C47.1,41,45.7,39.8,44.6,38.4z M40.8,47.4l-1.2-0.2l0.2-0.3
	l0.1-0.2L40.8,47.4z M53,25.2h0.3c0.2,0,0.3,0.1,0.4,0.2L55,28c-0.2-0.1-0.5-0.2-0.7-0.2H54L53,25.2z"/>
<path class="st0" d="M43,44c-0.3-0.2-0.8-0.4-1.3-0.7l-1.5,2.8l1.5,0.8c0.3,0.2,0.7,0.2,1.1,0.2c0.5,0,0.9-0.3,1.1-0.7
	c0.2-0.4,0.3-0.8,0.2-1.2C43.9,44.7,43.5,44.3,43,44z"/>
<path class="st0" d="M66.9,51.1c-0.5-2.7-2.2-7.9-2.8-8.4c-0.2-0.1-0.3-0.2-0.5-0.2c-0.4,0-0.9,0.1-1.3,0.2
	c-0.5,0.1-1.1,0.2-1.7,0.3l-0.5,0.1c-2.3,0.4-4.7,0.7-7,0.7h-1.1c-1-2.2-2.2-4.9-3.3-7.4l0-0.3l-0.8-1.8L47.7,34l-0.6-1.3
	c1.2-0.6,2.4-1.1,3.6-1.5l0.4-0.1c1.2-0.4,3.3-0.9,3.4-0.9c0.4-0.1,0.6-0.5,0.5-0.9c-0.1-0.3-0.4-0.6-0.7-0.6h-0.2
	c-0.1,0-2.3,0.5-3.5,1l-0.3,0.1c-2.2,0.7-4.3,1.5-5,2.6c-0.4,0.8-3.2,5.7-5.6,9.9l-0.5-0.2H39c-0.1,0-0.1,0-0.1,0.1l-1.2,2.4
	c0,0.1,0,0.2,0.1,0.2l0.1,0.1l0.3,0.2l-2.1,3.7c-0.2,0.4,0,0.8,0.4,1c0.2,0.1,0.4,0.1,0.5,0c0.1-0.1,0.2-0.1,0.3-0.2
	c2,0.2,14.3,1.7,15.3,1.8h1.1c1.1,2.4,2.1,4.4,5.3,5.9c1.2,0.5,2.5,0.8,3.8,0.8c1.3,0,2.6-0.2,3.9-0.7c0.3-0.1,0.6-0.3,0.8-0.5
	C67.8,56.2,67.8,55.6,66.9,51.1z M53.2,45.4c2.4-0.1,4.8-0.3,7.2-0.8l0.5-0.1c0.6-0.1,1.3-0.2,1.8-0.3l0.7-0.1c0.5,1.3,1,2.6,1.4,4
	L61,48.9c-2.1,0.4-4.2,0.6-6.3,0.8l-1.9-4.2L53.2,45.4L53.2,45.4z M46,34c0.9,2,1.9,4.2,2.8,6.3l1.5,3.4c-3.2-0.6-6.4-4.4-7-5.1
	L46,34z M52.7,49.7c-0.9-0.1-11.5-1.3-14.6-1.7l1.3-2.4l0.3,0.2l1.5-2.8L41,43l1.7-3c1.2,1.4,4.2,4.7,7.5,5.2c0.3,0.1,0.6,0.1,1,0.1
	l2,4.4L52.7,49.7L52.7,49.7z M62.7,56.4c-1.1,0-2.1-0.2-3.1-0.6c-2-0.9-3.6-2.6-4.3-4.7c2-0.2,4-0.4,6-0.8l3.7-0.8
	c0.2,0.6,0.3,1.2,0.4,1.9c0.2,1.2,0.7,3.7,0.7,4.5C65.1,56.2,63.9,56.4,62.7,56.4L62.7,56.4z"/>
<path d="M43,45.7l0-0.3l-0.3,0l0-0.3l-0.3,0l0,0.3l-0.3,0l0,0.3l0.3,0l0,0.3l0.3,0l0-0.3L43,45.7z"/>
<path d="M42.6,46.8c-0.6,0-1.2-0.5-1.2-1.2c0-0.5,0.3-0.9,0.7-1.1c0.6-0.2,1.3,0.1,1.5,0.7c0.2,0.6-0.1,1.3-0.7,1.5
	C42.9,46.7,42.7,46.7,42.6,46.8z M42.6,44.9c-0.1,0-0.2,0-0.2,0c-0.3,0.1-0.5,0.5-0.4,0.8c0.1,0.3,0.5,0.5,0.8,0.4
	c0.3-0.2,0.4-0.6,0.2-0.9C43,45.1,42.8,45,42.6,44.9z"/>
</svg>
